<?xml version="1.0" encoding="UTF-8" standalone="no"?>
<!DOCTYPE svg PUBLIC "-//W3C//DTD SVG 1.1//EN" "http://www.w3.org/Graphics/SVG/1.1/DTD/svg11.dtd">
<svg xmlns="http://www.w3.org/2000/svg" xmlns:xlink="http://www.w3.org/1999/xlink" version="1.1" width="497.244pt" height="496.763pt" viewBox="0 0 497.244 496.763">
<g enable-background="new">
<g id="Layer-1" data-name="Layer 1">
<clipPath id="cp0">
<path transform="matrix(1,0,0,-1,0,496.763)" d="M 0 0 L 497.244 0 L 497.244 496.763 L 0 496.763 Z "/>
</clipPath>
<g clip-path="url(#cp0)">
<path transform="matrix(1,0,0,-1,428.6396,-.480011)" d="M 0 0 C -.021 -.145 -.015 -.288 .023 -.429 C -1.015 -.446 -2.053 -.478 -3.091 -.478 C -120.556 -.48 -238.021 -.48 -355.484 -.477 C -356.522 -.477 -357.561 -.425 -358.598 -.397 C -358.598 -.264 -358.584 -.131 -358.56 0 Z "/>
<path transform="matrix(1,0,0,-1,.5498,427.624)" d="M 0 0 C -.183 -.02 -.366 -.037 -.55 -.057 L -.55 358.504 C -.36 358.479 -.17 358.455 .019 358.43 C .035 357.631 .064 356.833 .064 356.034 C .066 238.395 .066 120.755 .063 3.115 C .063 2.077 .022 1.038 0 0 "/>
<path transform="matrix(1,0,0,-1,497.3486,66.68701)" d="M 0 0 C .141 .021 .276 .01 .411 -.033 L .411 -2.433 C -.477 -1.749 .066 -.823 0 0 "/>
<path transform="matrix(1,0,0,-1,497.7598,430.08003)" d="M 0 0 L -.199 -.054 L -.406 -.037 C -.363 .791 -.873 1.711 0 2.399 Z "/>
<path transform="matrix(1,0,0,-1,67.6802,497.2802)" d="M 0 0 C -.021 .146 -.029 .292 -.024 .438 C .8 .381 1.72 .853 2.4 0 Z "/>
<path transform="matrix(1,0,0,-1,431.0332,496.7939)" d="M 0 0 C .002 -.162 .005 -.324 .008 -.486 L -2.394 -.486 C -1.738 .383 -.799 -.16 0 0 "/>
<path transform="matrix(1,0,0,-1,193.0527,250.0966)" d="M 0 0 C -6.979 -.527 -13.268 6.591 -13.243 13.201 C -13.218 19.759 -7.422 26.677 .113 26.66 C 7.773 26.643 13.332 19.245 13.38 13.325 C 13.438 6.377 6.744 -.587 0 0 "/>
<path transform="matrix(1,0,0,-1,300.5117,250.0966)" d="M 0 0 C -7.407 -.009 -13.525 5.991 -13.366 13.321 C -13.198 21.092 -6.525 26.631 -.09 26.683 C 5.645 26.729 13.304 21.705 13.276 13.179 C 13.251 5.081 6.113 -.473 0 0 "/>
<path transform="matrix(1,0,0,-1,497.7598,69.120609)" d="M 0 0 C -.49 .791 -.13 1.665 -.24 2.492 C -.274 5.763 -.316 9.06 -1.144 12.23 C -5.766 29.957 -15.361 44.418 -30.062 55.362 C -41.896 64.172 -55.054 69.418 -70.024 69.359 L -426.853 69.359 C -431.326 69.222 -435.816 69.235 -440.169 68.054 C -465.136 61.28 -482.616 45.917 -492.682 22.114 C -495.796 14.748 -497.388 7.04 -497.519 -.956 C -497.518 -119.836 -497.518 -238.721 -497.519 -357.614 C -497.101 -360.941 -497.361 -364.323 -496.662 -367.616 C -492.262 -388.31 -481.346 -404.685 -463.669 -416.29 C -453.545 -422.936 -442.561 -427.605 -430.152 -427.917 C -429.331 -428.03 -428.463 -427.668 -427.68 -428.16 L -69.119 -428.16 C -68.334 -427.668 -67.465 -428.03 -66.643 -427.918 C -63.721 -427.597 -60.76 -427.68 -57.876 -426.941 C -35.577 -421.228 -18.651 -408.506 -7.72 -388.172 C -3.187 -379.74 -.007 -370.821 -.241 -361.02 C -.13 -360.203 -.49 -359.34 0 -358.559 Z M -368.509 -381.146 C -368.419 -392.204 -373.247 -399.214 -381.389 -404.264 C -388.187 -408.482 -395.71 -410.274 -403.603 -410.913 C -413.878 -411.744 -423.767 -410.041 -433.401 -406.582 C -442.137 -403.446 -449.945 -398.756 -456.851 -392.543 C -468.84 -381.758 -476.177 -368.292 -479.291 -352.603 C -481.671 -340.608 -481.345 -328.663 -476.588 -317.138 C -474.578 -312.264 -471.708 -307.965 -467.675 -304.546 C -461.831 -299.594 -455.025 -298.072 -447.538 -299.221 C -439.744 -300.418 -432.782 -303.717 -426.151 -307.786 C -418.098 -312.729 -410.855 -318.715 -403.955 -325.159 C -396.008 -332.578 -388.684 -340.535 -382.241 -349.293 C -377.544 -355.679 -373.471 -362.422 -370.815 -369.929 C -369.403 -373.918 -368.334 -378 -368.509 -381.146 M -368.262 6.469 C -371.533 -1.756 -376.44 -9.026 -381.908 -15.935 C -386.617 -21.888 -391.677 -27.533 -397.126 -32.808 C -405.801 -41.204 -414.921 -49.06 -425.531 -54.976 C -430.838 -57.937 -436.357 -60.346 -442.388 -61.581 C -454.336 -64.027 -463.985 -59.447 -470.234 -49.518 C -473.942 -43.627 -475.847 -37.067 -476.724 -30.186 C -477.066 -27.492 -477.235 -24.795 -477.241 -22.066 C -476.763 -3.973 -471.042 12.16 -458.947 25.785 C -446.417 39.899 -430.544 47.571 -411.867 49.626 C -403.609 50.534 -395.483 49.906 -387.523 47.495 C -382.04 45.834 -376.998 43.275 -372.798 39.353 C -368.54 35.374 -365.932 30.481 -365.167 24.587 C -364.337 18.193 -365.958 12.259 -368.262 6.469 M -34.043 -386.518 C -45.942 -400.158 -61.158 -407.894 -79.066 -410.452 C -87.631 -411.676 -96.061 -411.263 -104.41 -408.993 C -110.349 -407.38 -115.801 -404.797 -120.352 -400.634 C -125.053 -396.333 -127.82 -391.021 -128.269 -384.526 C -128.777 -377.124 -126.565 -370.407 -123.464 -363.885 C -119.495 -355.54 -114.104 -348.136 -108.143 -341.135 C -98.851 -330.222 -88.596 -320.322 -76.938 -311.938 C -70.828 -307.543 -64.369 -303.751 -57.239 -301.235 C -51.767 -299.304 -46.173 -298.232 -40.344 -299.267 C -32.273 -300.7 -26.721 -305.594 -22.648 -312.366 C -19.36 -317.833 -17.633 -323.871 -16.732 -330.161 C -16.313 -333.088 -16.146 -336.026 -16.199 -339 C -16.464 -356.965 -22.22 -372.968 -34.043 -386.518 M -16.213 -21.263 C -16.177 -31.118 -17.697 -39.524 -21.855 -47.3 C -25.355 -53.849 -30.234 -58.909 -37.561 -61.18 C -43.184 -62.922 -48.773 -62.378 -54.292 -60.818 C -62.45 -58.51 -69.684 -54.308 -76.554 -49.45 C -86.568 -42.368 -95.391 -33.956 -103.703 -24.979 C -110.28 -17.877 -116.252 -10.319 -121.034 -1.886 C -124.236 3.758 -126.885 9.651 -127.934 16.124 C -129.11 23.395 -128.107 30.209 -123.42 36.164 C -120.038 40.46 -115.715 43.527 -110.724 45.674 C -104.496 48.353 -97.982 49.676 -91.21 49.917 C -75.923 50.46 -61.88 46.496 -49.008 38.331 C -39.106 32.05 -31.367 23.681 -25.602 13.495 C -21.083 5.512 -18.243 -3.067 -16.891 -12.128 C -16.385 -15.516 -16.046 -18.932 -16.213 -21.263 " fill="#403f3f"/>
</g>
</g>
</g>
</svg>
