<?xml version="1.0" encoding="UTF-8" standalone="no"?>
<!DOCTYPE svg PUBLIC "-//W3C//DTD SVG 1.1//EN" "http://www.w3.org/Graphics/SVG/1.1/DTD/svg11.dtd">
<svg xmlns="http://www.w3.org/2000/svg" xmlns:xlink="http://www.w3.org/1999/xlink" version="1.1" width="497.244pt" height="496.763pt" viewBox="0 0 497.244 496.763">
<g enable-background="new">
<g id="Layer-1" data-name="Layer 1">
<clipPath id="cp0">
<path transform="matrix(1,0,0,-1,0,496.763)" d="M 0 496.763 L 497.244 496.763 L 497.244 0 L 0 0 Z "/>
</clipPath>
<g clip-path="url(#cp0)">
<path transform="matrix(1,0,0,-1,428.64,-.47979737)" d="M 0 0 C -.022 -.145 -.015 -.288 .023 -.429 C -1.015 -.446 -2.053 -.478 -3.091 -.478 C -120.556 -.48 -238.021 -.48 -355.485 -.477 C -356.523 -.477 -357.561 -.425 -358.598 -.397 C -358.598 -.264 -358.585 -.131 -358.56 0 Z " fill="#beb0b4"/>
<path transform="matrix(1,0,0,-1,.5497,427.6242)" d="M 0 0 C -.183 -.019 -.366 -.037 -.55 -.056 L -.55 358.504 C -.36 358.479 -.17 358.455 .019 358.43 C .035 357.631 .064 356.833 .064 356.034 C .066 238.395 .066 120.755 .063 3.115 C .063 2.077 .022 1.038 0 0 " fill="#bfb0b4"/>
<path transform="matrix(1,0,0,-1,497.349,66.687198)" d="M 0 0 C .14 .021 .276 .01 .411 -.033 L .411 -2.433 C -.477 -1.749 .066 -.823 0 0 " fill="#c2b0b4"/>
<path transform="matrix(1,0,0,-1,497.7601,430.0803)" d="M 0 0 L -.2 -.053 L -.407 -.037 C -.364 .791 -.873 1.711 0 2.4 Z " fill="#b9b0b4"/>
<path transform="matrix(1,0,0,-1,67.68,497.2805)" d="M 0 0 C -.021 .146 -.029 .292 -.024 .439 C .8 .381 1.72 .853 2.4 0 Z " fill="#b8a8ad"/>
<path transform="matrix(1,0,0,-1,431.0336,496.7942)" d="M 0 0 C .002 -.162 .004 -.324 .007 -.486 L -2.394 -.486 C -1.739 .383 -.799 -.16 0 0 " fill="#c1b4b8"/>
<path transform="matrix(1,0,0,-1,193.0526,250.0969)" d="M 0 0 C -6.979 -.527 -13.268 6.591 -13.243 13.201 C -13.218 19.759 -7.422 26.677 .113 26.66 C 7.773 26.643 13.332 19.245 13.38 13.325 C 13.438 6.377 6.744 -.587 0 0 " fill="#3e121f"/>
<path transform="matrix(1,0,0,-1,300.5121,250.0969)" d="M 0 0 C -7.408 -.009 -13.526 5.991 -13.367 13.321 C -13.199 21.092 -6.526 26.631 -.09 26.683 C 5.644 26.729 13.303 21.705 13.276 13.179 C 13.251 5.081 6.113 -.472 0 0 " fill="#3e121f"/>
<path transform="matrix(1,0,0,-1,481.5472,90.383518)" d="M 0 0 C .036 -9.855 -1.485 -18.261 -5.643 -26.037 C -9.143 -32.586 -14.022 -37.646 -21.348 -39.917 C -26.971 -41.659 -32.561 -41.115 -38.079 -39.555 C -46.238 -37.247 -53.471 -33.045 -60.341 -28.187 C -70.356 -21.105 -79.178 -12.693 -87.491 -3.716 C -94.068 3.386 -100.039 10.944 -104.822 19.377 C -108.024 25.021 -110.672 30.914 -111.721 37.387 C -112.898 44.658 -111.895 51.472 -107.207 57.427 C -103.826 61.723 -99.502 64.79 -94.511 66.937 C -88.284 69.616 -81.77 70.939 -74.997 71.18 C -59.71 71.723 -45.667 67.759 -32.795 59.594 C -22.894 53.313 -15.155 44.944 -9.389 34.758 C -4.87 26.775 -2.031 18.196 -.678 9.135 C -.172 5.747 .167 2.331 0 0 M -17.83 -365.255 C -29.73 -378.895 -44.946 -386.631 -62.854 -389.189 C -71.418 -390.413 -79.848 -390 -88.198 -387.73 C -94.136 -386.117 -99.588 -383.534 -104.139 -379.371 C -108.84 -375.071 -111.608 -369.758 -112.056 -363.263 C -112.565 -355.861 -110.353 -349.144 -107.251 -342.622 C -103.283 -334.277 -97.892 -326.873 -91.93 -319.872 C -82.638 -308.959 -72.383 -299.059 -60.726 -290.675 C -54.616 -286.281 -48.157 -282.489 -41.027 -279.972 C -35.554 -278.041 -29.96 -276.969 -24.131 -278.004 C -16.061 -279.437 -10.508 -284.331 -6.436 -291.103 C -3.148 -296.571 -1.42 -302.608 -.52 -308.898 C -.101 -311.825 .067 -314.763 .013 -317.737 C -.251 -335.702 -6.007 -351.705 -17.83 -365.255 M -352.049 27.732 C -355.32 19.507 -360.228 12.237 -365.695 5.328 C -370.404 -.625 -375.464 -6.27 -380.914 -11.545 C -389.588 -19.941 -398.709 -27.797 -409.318 -33.713 C -414.626 -36.674 -420.145 -39.083 -426.175 -40.318 C -438.124 -42.764 -447.773 -38.184 -454.022 -28.255 C -457.73 -22.364 -459.634 -15.804 -460.511 -8.923 C -460.854 -6.229 -461.023 -3.532 -461.028 -.803 C -460.55 17.29 -454.83 33.423 -442.734 47.048 C -430.204 61.162 -414.332 68.834 -395.654 70.889 C -387.397 71.797 -379.271 71.169 -371.311 68.758 C -365.827 67.097 -360.785 64.538 -356.586 60.616 C -352.327 56.637 -349.719 51.744 -348.954 45.85 C -348.125 39.456 -349.746 33.522 -352.049 27.732 M -352.296 -359.883 C -352.207 -370.941 -357.034 -377.951 -365.176 -383.001 C -371.975 -387.219 -379.498 -389.011 -387.39 -389.65 C -397.666 -390.481 -407.554 -388.778 -417.189 -385.319 C -425.924 -382.183 -433.733 -377.493 -440.638 -371.281 C -452.628 -360.495 -459.964 -347.029 -463.078 -331.34 C -465.459 -319.345 -465.132 -307.4 -460.376 -295.875 C -458.365 -291.001 -455.495 -286.702 -451.462 -283.283 C -445.618 -278.331 -438.813 -276.809 -431.325 -277.958 C -423.531 -279.156 -416.569 -282.454 -409.939 -286.523 C -401.885 -291.466 -394.643 -297.452 -387.742 -303.896 C -379.795 -311.315 -372.471 -319.272 -366.028 -328.031 C -361.332 -334.416 -357.258 -341.159 -354.603 -348.666 C -353.191 -352.656 -352.122 -356.738 -352.296 -359.883 M 16.213 21.263 C 15.722 22.054 16.083 22.928 15.972 23.755 C 15.938 27.026 15.896 30.323 15.069 33.493 C 10.447 51.22 .851 65.681 -13.85 76.625 C -25.683 85.435 -38.841 90.681 -53.812 90.622 L -410.64 90.622 C -415.113 90.485 -419.604 90.498 -423.957 89.317 C -448.923 82.543 -466.403 67.18 -476.469 43.377 C -479.584 36.011 -481.175 28.303 -481.306 20.307 C -481.305 -98.573 -481.305 -217.458 -481.306 -336.351 C -480.888 -339.678 -481.149 -343.06 -480.449 -346.353 C -476.049 -367.047 -465.133 -383.422 -447.457 -395.027 C -437.333 -401.673 -426.348 -406.342 -413.94 -406.655 C -413.118 -406.767 -412.251 -406.406 -411.467 -406.897 L -52.907 -406.897 C -52.121 -406.406 -51.252 -406.767 -50.43 -406.656 C -47.508 -406.334 -44.547 -406.417 -41.663 -405.678 C -19.365 -399.965 -2.439 -387.243 8.493 -366.909 C 13.026 -358.477 16.206 -349.558 15.971 -339.757 C 16.083 -338.94 15.722 -338.077 16.213 -337.296 Z " fill="#ffffff"/>
</g>
</g>
</g>
</svg>
