<?xml version="1.0" encoding="UTF-8" standalone="no"?>
<!DOCTYPE svg PUBLIC "-//W3C//DTD SVG 1.1//EN" "http://www.w3.org/Graphics/SVG/1.1/DTD/svg11.dtd">
<svg xmlns="http://www.w3.org/2000/svg" xmlns:xlink="http://www.w3.org/1999/xlink" version="1.1" width="618.84pt" height="497.518pt" viewBox="0 0 618.84 497.518">
<g enable-background="new">
<g id="Layer-1" data-name="Layer 1">
<clipPath id="cp0">
<path transform="matrix(1,0,0,-1,0,497.518)" d="M 0 497.518 L 618.84 497.518 L 618.84 0 L 0 0 Z "/>
</clipPath>
<g clip-path="url(#cp0)">
<path transform="matrix(1,0,0,-1,431.7991,55.807497)" d="M 0 0 C 103.3 0 187.04 -82.348 187.04 -183.928 C 187.04 -285.508 103.3 -367.856 0 -367.856 C -103.299 -367.856 -187.04 -285.508 -187.04 -183.928 C -187.04 -82.348 -103.299 0 0 0 " fill="#403f3f"/>
<path transform="matrix(1,0,0,-1,129.2576,62.88852)" d="M 0 0 C -3.271 -8.226 -8.179 -15.496 -13.646 -22.405 C -18.356 -28.357 -23.416 -34.002 -28.865 -39.278 C -37.539 -47.673 -46.66 -55.53 -57.269 -61.446 C -62.578 -64.406 -68.096 -66.816 -74.126 -68.05 C -86.075 -70.496 -95.725 -65.917 -101.974 -55.987 C -105.682 -50.097 -107.585 -43.536 -108.462 -36.656 C -108.806 -33.962 -108.974 -31.265 -108.979 -28.536 C -108.501 -10.443 -102.781 5.69 -90.685 19.315 C -78.155 33.429 -62.283 41.102 -43.605 43.156 C -35.349 44.064 -27.223 43.437 -19.262 41.025 C -13.778 39.365 -8.736 36.806 -4.538 32.883 C -.278 28.904 2.33 24.011 3.094 18.117 C 3.924 11.724 2.303 5.79 0 0 M -.247 -387.617 C -.158 -398.673 -4.985 -405.683 -13.127 -410.734 C -19.926 -414.952 -27.449 -416.745 -35.342 -417.382 C -45.618 -418.213 -55.505 -416.51 -65.14 -413.051 C -73.875 -409.916 -81.684 -405.225 -88.589 -399.013 C -100.579 -388.228 -107.916 -374.761 -111.029 -359.074 C -113.41 -347.078 -113.084 -335.133 -108.327 -323.608 C -106.316 -318.734 -103.446 -314.434 -99.413 -311.016 C -93.569 -306.063 -86.764 -304.542 -79.276 -305.692 C -71.483 -306.888 -64.521 -310.186 -57.891 -314.255 C -49.836 -319.2 -42.594 -325.185 -35.693 -331.628 C -27.747 -339.047 -20.422 -347.004 -13.979 -355.764 C -9.283 -362.148 -5.209 -368.891 -2.554 -376.398 C -1.142 -380.388 -.073 -384.47 -.247 -387.617 M 368.261 -350.579 C 362.681 -352.86 356.967 -354.878 351.132 -356.621 C 349.069 -370.104 343.536 -382.31 334.219 -392.988 C 322.318 -406.628 307.103 -414.364 289.196 -416.921 C 280.63 -418.145 272.202 -417.732 263.85 -415.463 C 257.913 -413.85 252.461 -411.266 247.91 -407.103 C 243.208 -402.804 240.44 -397.492 239.994 -390.997 C 239.484 -383.593 241.697 -376.876 244.797 -370.354 C 246.739 -366.271 249.025 -362.416 251.548 -358.72 C 170.49 -338.223 110.502 -264.813 110.502 -177.385 C 110.502 -93.221 166.094 -22.047 242.561 1.436 C 241.572 4.083 240.789 6.811 240.328 9.655 C 239.15 16.925 240.155 23.74 244.841 29.695 C 248.222 33.99 252.546 37.057 257.539 39.205 C 263.764 41.883 270.28 43.206 277.051 43.447 C 292.338 43.991 306.381 40.026 319.253 31.861 C 329.155 25.581 336.894 17.211 342.66 7.025 C 343.274 5.94 343.851 4.841 344.404 3.734 C 352.506 1.644 360.39 -.987 368.029 -4.097 C 368.025 -4.057 368.025 -4.017 368.02 -3.978 C 367.986 -.707 367.945 2.591 367.118 5.76 C 362.497 23.487 352.899 37.948 338.199 48.893 C 326.366 57.703 313.208 62.949 298.237 62.889 C 179.3 62.889 60.358 62.889 -58.591 62.889 C -63.064 62.753 -67.555 62.766 -71.908 61.584 C -96.875 54.811 -114.355 39.447 -124.42 15.645 C -127.536 8.278 -129.126 .571 -129.258 -7.426 C -129.256 -126.306 -129.256 -245.192 -129.257 -364.083 C -128.839 -367.411 -129.1 -370.792 -128.4 -374.085 C -124 -394.78 -113.084 -411.155 -95.409 -422.759 C -85.285 -429.406 -74.299 -434.075 -61.892 -434.388 C -61.07 -434.5 -60.203 -434.138 -59.418 -434.629 L 299.141 -434.629 C 299.927 -434.138 300.796 -434.5 301.619 -434.388 C 304.542 -434.067 307.502 -434.15 310.386 -433.412 C 332.683 -427.699 349.609 -414.975 360.542 -394.641 C 365.075 -386.209 368.255 -377.291 368.02 -367.49 C 368.131 -366.672 367.771 -365.809 368.261 -365.03 Z " fill="#403f3f"/>
</g>
</g>
</g>
</svg>
